<svg width="100" height="100" viewBox="0 0 100 100" fill="none" xmlns="http://www.w3.org/2000/svg">
  <rect width="100" height="100" rx="20" fill="#121212"/>
  <path d="M20 30H35C40.5228 30 45 34.4772 45 40V60C45 65.5228 40.5228 70 35 70H20V30Z" fill="#4285F4"/>
  <path d="M50 30H65C70.5228 30 75 34.4772 75 40V60C75 65.5228 70.5228 70 65 70H50V30Z" fill="#EA4335"/>
  <path d="M80 30H85C90.5228 30 95 34.4772 95 40V60C95 65.5228 90.5228 70 85 70H80V30Z" fill="#FBBC05"/>
  <path d="M15 30H20V70H15C9.47715 70 5 65.5228 5 60V40C5 34.4772 9.47715 30 15 30Z" fill="#34A853"/>
  <path d="M35 45L40 50L35 55" stroke="white" stroke-width="2" stroke-linecap="round" stroke-linejoin="round"/>
  <path d="M65 45L60 50L65 55" stroke="white" stroke-width="2" stroke-linecap="round" stroke-linejoin="round"/>
  <path d="M45 40L55 60" stroke="white" stroke-width="2" stroke-linecap="round" stroke-linejoin="round"/>
</svg>